<svg width="24" height="24" viewBox="0 0 24 24" fill="none" xmlns="http://www.w3.org/2000/svg">
<path d="M12 0.375C5.57812 0.375 0.375 5.625 0.375 12C0.375 18.4219 5.57812 23.625 12 23.625C18.375 23.625 23.625 18.4219 23.625 12C23.625 5.625 18.375 0.375 12 0.375ZM12 20.625C7.21875 20.625 3.375 16.7812 3.375 12C3.375 7.26562 7.21875 3.375 12 3.375C16.7344 3.375 20.625 7.26562 20.625 12C20.625 16.7812 16.7344 20.625 12 20.625ZM12 6C8.67188 6 6 8.71875 6 12C6 15.3281 8.67188 18 12 18C15.2812 18 18 15.3281 18 12C18 8.71875 15.2812 6 12 6ZM12 15C10.3125 15 9 13.6875 9 12C9 10.3594 10.3125 9 12 9C13.6406 9 15 10.3594 15 12C15 13.6875 13.6406 15 12 15Z" fill="#2F1160"/>
</svg>
