<svg width="10" height="24" viewBox="0 0 10 24" fill="none" xmlns="http://www.w3.org/2000/svg">
<path d="M1.4375 19.9219C0.875 19.9219 0.5 20.3438 0.5 20.8594V23.0625C0.5 23.625 0.875 24 1.4375 24H8.5625C9.07812 24 9.5 23.625 9.5 23.0625V20.8594C9.5 20.3438 9.07812 19.9219 8.5625 19.9219H7.625V9.9375C7.625 9.42188 7.20312 9 6.6875 9H1.4375C0.875 9 0.5 9.42188 0.5 9.9375V12.1875C0.5 12.7031 0.875 13.125 1.4375 13.125H2.375V19.9219H1.4375ZM5 0C3.125 0 1.625 1.54688 1.625 3.375C1.625 5.25 3.125 6.75 5 6.75C6.82812 6.75 8.375 5.25 8.375 3.375C8.375 1.54688 6.82812 0 5 0Z" fill="#2F1160"/>
</svg>
