<svg width="30" height="21" viewBox="0 0 30 21" fill="none" xmlns="http://www.w3.org/2000/svg">
<path d="M4.5 9C6.14063 9 7.5 7.6875 7.5 6C7.5 4.35938 6.14063 3 4.5 3C2.8125 3 1.5 4.35938 1.5 6C1.5 7.6875 2.8125 9 4.5 9ZM25.5 9C27.1406 9 28.5 7.6875 28.5 6C28.5 4.35938 27.1406 3 25.5 3C23.8125 3 22.5 4.35938 22.5 6C22.5 7.6875 23.8125 9 25.5 9ZM27 10.5H24C23.1563 10.5 22.4063 10.875 21.8438 11.3906C23.7656 12.4219 25.0781 14.2969 25.4063 16.5H28.5C29.2969 16.5 30 15.8438 30 15V13.5C30 11.8594 28.6406 10.5 27 10.5ZM15 10.5C17.8594 10.5 20.25 8.15625 20.25 5.25C20.25 2.39062 17.8594 0 15 0C12.0938 0 9.75 2.39062 9.75 5.25C9.75 8.15625 12.0938 10.5 15 10.5ZM18.5625 12H18.1875C17.2031 12.4688 16.125 12.75 15 12.75C13.8281 12.75 12.75 12.4688 11.7656 12H11.3906C8.39063 12 6 14.4375 6 17.4375V18.75C6 20.0156 6.98438 21 8.25 21H21.75C22.9688 21 24 20.0156 24 18.75V17.4375C24 14.4375 21.5625 12 18.5625 12ZM8.10938 11.3906C7.54688 10.875 6.79688 10.5 6 10.5H3C1.3125 10.5 9.53674e-07 11.8594 9.53674e-07 13.5V15C9.53674e-07 15.8438 0.656251 16.5 1.5 16.5H4.54688C4.875 14.2969 6.1875 12.4219 8.10938 11.3906Z" fill="#2F1160"/>
</svg>
